<mxfile host="drawio-plugin" agent="Mozilla/5.0 (Windows NT 10.0; Win64; x64) AppleWebKit/537.36 (KHTML, like Gecko) Chrome/122.0.0.0 Safari/537.36" modified="2024-11-05T06:48:30.793Z" version="22.1.22" etag="n7DCgelYLxnq5clW7wDk" type="embed">
  <diagram name="Page-1" id="XkAltQHXHPpu_8RIoyJm">
    <mxGraphModel dx="736" dy="479" grid="1" gridSize="10" guides="1" tooltips="1" connect="1" arrows="1" fold="1" page="1" pageScale="1" pageWidth="850" pageHeight="1100" math="0" shadow="0">
      <root>
        <mxCell id="0" />
        <mxCell id="1" parent="0" />
        <mxCell id="mxqj7EZsbbimsaNKOHsK-1" value="" style="shape=cube;whiteSpace=wrap;html=1;boundedLbl=1;backgroundOutline=1;darkOpacity=0.05;darkOpacity2=0.1;" parent="1" vertex="1">
          <mxGeometry x="40" y="210" width="120" height="90" as="geometry" />
        </mxCell>
        <UserObject label="Client&lt;div&gt;ReactJS&lt;/div&gt;" placeholders="1" name="Variable" id="mxqj7EZsbbimsaNKOHsK-2">
          <mxCell style="text;html=1;strokeColor=none;fillColor=none;align=center;verticalAlign=middle;whiteSpace=wrap;overflow=hidden;" parent="1" vertex="1">
            <mxGeometry x="70" y="240" width="80" height="50" as="geometry" />
          </mxCell>
        </UserObject>
        <mxCell id="mxqj7EZsbbimsaNKOHsK-3" value="" style="shape=cube;whiteSpace=wrap;html=1;boundedLbl=1;backgroundOutline=1;darkOpacity=0.05;darkOpacity2=0.1;" parent="1" vertex="1">
          <mxGeometry x="230" y="210" width="120" height="90" as="geometry" />
        </mxCell>
        <UserObject label="LoadBalancer&lt;div&gt;localhost:80&lt;/div&gt;" placeholders="1" name="Variable" id="mxqj7EZsbbimsaNKOHsK-4">
          <mxCell style="text;html=1;strokeColor=none;fillColor=none;align=center;verticalAlign=middle;whiteSpace=wrap;overflow=hidden;" parent="1" vertex="1">
            <mxGeometry x="260" y="240" width="80" height="50" as="geometry" />
          </mxCell>
        </UserObject>
        <mxCell id="mxqj7EZsbbimsaNKOHsK-7" value="" style="shape=cube;whiteSpace=wrap;html=1;boundedLbl=1;backgroundOutline=1;darkOpacity=0.05;darkOpacity2=0.1;" parent="1" vertex="1">
          <mxGeometry x="445" y="110" width="120" height="90" as="geometry" />
        </mxCell>
        <UserObject label="REST server&lt;div&gt;localhost:z&lt;/div&gt;" placeholders="1" name="Variable" id="mxqj7EZsbbimsaNKOHsK-11">
          <mxCell style="text;html=1;strokeColor=none;fillColor=none;align=center;verticalAlign=middle;whiteSpace=wrap;overflow=hidden;" parent="1" vertex="1">
            <mxGeometry x="470" y="140" width="80" height="50" as="geometry" />
          </mxCell>
        </UserObject>
        <mxCell id="mxqj7EZsbbimsaNKOHsK-12" value="" style="swimlane;startSize=0;" parent="1" vertex="1">
          <mxGeometry x="410" y="60" width="190" height="390" as="geometry" />
        </mxCell>
        <mxCell id="mxqj7EZsbbimsaNKOHsK-6" value="" style="shape=cube;whiteSpace=wrap;html=1;boundedLbl=1;backgroundOutline=1;darkOpacity=0.05;darkOpacity2=0.1;" parent="mxqj7EZsbbimsaNKOHsK-12" vertex="1">
          <mxGeometry x="30" y="220" width="120" height="90" as="geometry" />
        </mxCell>
        <UserObject label="REST server&lt;div&gt;localhost:x&lt;/div&gt;" placeholders="1" name="Variable" id="mxqj7EZsbbimsaNKOHsK-10">
          <mxCell style="text;html=1;strokeColor=none;fillColor=none;align=center;verticalAlign=middle;whiteSpace=wrap;overflow=hidden;" parent="mxqj7EZsbbimsaNKOHsK-12" vertex="1">
            <mxGeometry x="60" y="250" width="80" height="50" as="geometry" />
          </mxCell>
        </UserObject>
        <mxCell id="o7GKlm-I3lODQgT_ElLW-15" value="" style="shape=waypoint;sketch=0;size=6;pointerEvents=1;points=[];fillColor=none;resizable=0;rotatable=0;perimeter=centerPerimeter;snapToPoint=1;" parent="mxqj7EZsbbimsaNKOHsK-12" vertex="1">
          <mxGeometry x="85" y="160" width="20" height="20" as="geometry" />
        </mxCell>
        <mxCell id="o7GKlm-I3lODQgT_ElLW-16" value="" style="shape=waypoint;sketch=0;size=6;pointerEvents=1;points=[];fillColor=none;resizable=0;rotatable=0;perimeter=centerPerimeter;snapToPoint=1;" parent="mxqj7EZsbbimsaNKOHsK-12" vertex="1">
          <mxGeometry x="85" y="180" width="20" height="20" as="geometry" />
        </mxCell>
        <mxCell id="o7GKlm-I3lODQgT_ElLW-17" value="" style="shape=waypoint;sketch=0;size=6;pointerEvents=1;points=[];fillColor=none;resizable=0;rotatable=0;perimeter=centerPerimeter;snapToPoint=1;" parent="mxqj7EZsbbimsaNKOHsK-12" vertex="1">
          <mxGeometry x="85" y="200" width="20" height="20" as="geometry" />
        </mxCell>
        <mxCell id="o7GKlm-I3lODQgT_ElLW-18" value="" style="shape=waypoint;sketch=0;size=6;pointerEvents=1;points=[];fillColor=none;resizable=0;rotatable=0;perimeter=centerPerimeter;snapToPoint=1;" parent="mxqj7EZsbbimsaNKOHsK-12" vertex="1">
          <mxGeometry x="85" y="140" width="20" height="20" as="geometry" />
        </mxCell>
        <mxCell id="mxqj7EZsbbimsaNKOHsK-17" value="" style="strokeWidth=2;html=1;shape=mxgraph.flowchart.database;whiteSpace=wrap;" parent="1" vertex="1">
          <mxGeometry x="800" y="70" width="110" height="110" as="geometry" />
        </mxCell>
        <UserObject label="RDMS&lt;div&gt;localhost:x&lt;/div&gt;" placeholders="1" name="Variable" id="mxqj7EZsbbimsaNKOHsK-18">
          <mxCell style="text;html=1;strokeColor=none;fillColor=none;align=center;verticalAlign=middle;whiteSpace=wrap;overflow=hidden;" parent="1" vertex="1">
            <mxGeometry x="815" y="110" width="80" height="50" as="geometry" />
          </mxCell>
        </UserObject>
        <mxCell id="mxqj7EZsbbimsaNKOHsK-19" value="" style="swimlane;startSize=0;" parent="1" vertex="1">
          <mxGeometry x="650" y="460" width="370" height="230" as="geometry" />
        </mxCell>
        <mxCell id="mxqj7EZsbbimsaNKOHsK-20" value="Archiver&lt;div&gt;&lt;br&gt;&lt;/div&gt;&lt;div&gt;Python?&lt;/div&gt;" style="shape=cube;whiteSpace=wrap;html=1;boundedLbl=1;backgroundOutline=1;darkOpacity=0.05;darkOpacity2=0.1;" parent="mxqj7EZsbbimsaNKOHsK-19" vertex="1">
          <mxGeometry x="10" y="120" width="120" height="80" as="geometry" />
        </mxCell>
        <mxCell id="mxqj7EZsbbimsaNKOHsK-25" value="" style="shape=waypoint;sketch=0;size=6;pointerEvents=1;points=[];fillColor=none;resizable=0;rotatable=0;perimeter=centerPerimeter;snapToPoint=1;" parent="mxqj7EZsbbimsaNKOHsK-19" vertex="1">
          <mxGeometry x="190" y="150" width="20" height="20" as="geometry" />
        </mxCell>
        <mxCell id="mxqj7EZsbbimsaNKOHsK-27" value="" style="shape=waypoint;sketch=0;size=6;pointerEvents=1;points=[];fillColor=none;resizable=0;rotatable=0;perimeter=centerPerimeter;snapToPoint=1;" parent="mxqj7EZsbbimsaNKOHsK-19" vertex="1">
          <mxGeometry x="180" y="150" width="20" height="20" as="geometry" />
        </mxCell>
        <mxCell id="mxqj7EZsbbimsaNKOHsK-26" value="" style="shape=waypoint;sketch=0;size=6;pointerEvents=1;points=[];fillColor=none;resizable=0;rotatable=0;perimeter=centerPerimeter;snapToPoint=1;" parent="mxqj7EZsbbimsaNKOHsK-19" vertex="1">
          <mxGeometry x="170" y="150" width="20" height="20" as="geometry" />
        </mxCell>
        <mxCell id="mxqj7EZsbbimsaNKOHsK-28" value="Message Broker&lt;div&gt;localhost:x&lt;/div&gt;" style="shape=datastore;whiteSpace=wrap;html=1;" parent="mxqj7EZsbbimsaNKOHsK-19" vertex="1">
          <mxGeometry x="140" y="10" width="90" height="80" as="geometry" />
        </mxCell>
        <mxCell id="mxqj7EZsbbimsaNKOHsK-29" value="Archiver&lt;div&gt;&lt;br&gt;&lt;/div&gt;&lt;div&gt;Python?&lt;/div&gt;" style="shape=cube;whiteSpace=wrap;html=1;boundedLbl=1;backgroundOutline=1;darkOpacity=0.05;darkOpacity2=0.1;" parent="mxqj7EZsbbimsaNKOHsK-19" vertex="1">
          <mxGeometry x="230" y="120" width="120" height="80" as="geometry" />
        </mxCell>
        <mxCell id="mxqj7EZsbbimsaNKOHsK-30" value="" style="shape=waypoint;sketch=0;size=6;pointerEvents=1;points=[];fillColor=none;resizable=0;rotatable=0;perimeter=centerPerimeter;snapToPoint=1;" parent="mxqj7EZsbbimsaNKOHsK-19" vertex="1">
          <mxGeometry x="160" y="150" width="20" height="20" as="geometry" />
        </mxCell>
        <mxCell id="o7GKlm-I3lODQgT_ElLW-1" value="" style="endArrow=classic;html=1;rounded=0;exitX=0;exitY=0;exitDx=120;exitDy=55;exitPerimeter=0;" parent="1" source="mxqj7EZsbbimsaNKOHsK-1" edge="1">
          <mxGeometry width="50" height="50" relative="1" as="geometry">
            <mxPoint x="640" y="300" as="sourcePoint" />
            <mxPoint x="240" y="265" as="targetPoint" />
          </mxGeometry>
        </mxCell>
        <mxCell id="o7GKlm-I3lODQgT_ElLW-2" value="" style="endArrow=classic;html=1;rounded=0;exitX=0;exitY=0;exitDx=120;exitDy=55;exitPerimeter=0;entryX=-0.006;entryY=0.523;entryDx=0;entryDy=0;entryPerimeter=0;" parent="1" source="mxqj7EZsbbimsaNKOHsK-3" target="mxqj7EZsbbimsaNKOHsK-12" edge="1">
          <mxGeometry width="50" height="50" relative="1" as="geometry">
            <mxPoint x="640" y="300" as="sourcePoint" />
            <mxPoint x="690" y="250" as="targetPoint" />
          </mxGeometry>
        </mxCell>
        <mxCell id="o7GKlm-I3lODQgT_ElLW-4" value="Updates DB" style="text;html=1;align=center;verticalAlign=middle;whiteSpace=wrap;rounded=0;" parent="1" vertex="1">
          <mxGeometry x="860" y="200" width="60" height="30" as="geometry" />
        </mxCell>
        <mxCell id="o7GKlm-I3lODQgT_ElLW-10" value="Puts Job To Queue" style="text;html=1;align=center;verticalAlign=middle;whiteSpace=wrap;rounded=0;" parent="1" vertex="1">
          <mxGeometry x="870" y="390" width="60" height="30" as="geometry" />
        </mxCell>
        <mxCell id="o7GKlm-I3lODQgT_ElLW-12" value="" style="endArrow=classic;html=1;rounded=0;entryX=0;entryY=0;entryDx=70;entryDy=90;entryPerimeter=0;exitX=0.521;exitY=1.002;exitDx=0;exitDy=0;exitPerimeter=0;" parent="1" source="mxqj7EZsbbimsaNKOHsK-19" target="mxqj7EZsbbimsaNKOHsK-3" edge="1">
          <mxGeometry width="50" height="50" relative="1" as="geometry">
            <mxPoint x="870" y="740" as="sourcePoint" />
            <mxPoint x="690" y="350" as="targetPoint" />
            <Array as="points">
              <mxPoint x="842" y="750" />
              <mxPoint x="300" y="750" />
            </Array>
          </mxGeometry>
        </mxCell>
        <mxCell id="o7GKlm-I3lODQgT_ElLW-13" value="Sends Back The Archive" style="text;html=1;align=center;verticalAlign=middle;whiteSpace=wrap;rounded=0;" parent="1" vertex="1">
          <mxGeometry x="460" y="710" width="110" height="30" as="geometry" />
        </mxCell>
        <mxCell id="o7GKlm-I3lODQgT_ElLW-19" value="" style="endArrow=classic;html=1;rounded=0;exitX=1.013;exitY=0.525;exitDx=0;exitDy=0;exitPerimeter=0;entryX=0.541;entryY=0;entryDx=0;entryDy=0;entryPerimeter=0;" parent="1" source="mxqj7EZsbbimsaNKOHsK-12" target="mxqj7EZsbbimsaNKOHsK-19" edge="1">
          <mxGeometry width="50" height="50" relative="1" as="geometry">
            <mxPoint x="640" y="280" as="sourcePoint" />
            <mxPoint x="690" y="230" as="targetPoint" />
            <Array as="points">
              <mxPoint x="850" y="265" />
            </Array>
          </mxGeometry>
        </mxCell>
        <mxCell id="o7GKlm-I3lODQgT_ElLW-21" value="" style="endArrow=classic;html=1;rounded=0;exitX=1;exitY=0.527;exitDx=0;exitDy=0;exitPerimeter=0;" parent="1" source="mxqj7EZsbbimsaNKOHsK-12" edge="1">
          <mxGeometry width="50" height="50" relative="1" as="geometry">
            <mxPoint x="640" y="280" as="sourcePoint" />
            <mxPoint x="850" y="180" as="targetPoint" />
            <Array as="points">
              <mxPoint x="850" y="266" />
            </Array>
          </mxGeometry>
        </mxCell>
      </root>
    </mxGraphModel>
  </diagram>
</mxfile>
